HIERARCHY
ROOT Hips
{
  OFFSET 263.056 91.6644 -274.608
  CHANNELS 6 Xposition Yposition Zposition Zrotation Xrotation Yrotation
  JOINT LeftUpLeg
  {
    OFFSET 8.64259 1.95398 -2.38835
    CHANNELS 3 Zrotation Xrotation Yrotation
    JOINT LeftLeg
    {
      OFFSET 43.7702 0 0
      CHANNELS 3 Zrotation Xrotation Yrotation
      JOINT LeftFoot
      {
        OFFSET 40.6238 0 0
        CHANNELS 3 Zrotation Xrotation Yrotation
        JOINT LeftToeBase
        {
          OFFSET 12.7242 0 0
          CHANNELS 3 Zrotation Xrotation Yrotation
          End Site
          {
            OFFSET 0 0 0
          }
        }
      }
    }
  }
  JOINT RightUpLeg
  {
    OFFSET -8.2249 1.95398 -2.59336
    CHANNELS 3 Zrotation Xrotation Yrotation
    JOINT RightLeg
    {
      OFFSET 43.5653 0 0
      CHANNELS 3 Zrotation Xrotation Yrotation
      JOINT RightFoot
      {
        OFFSET 40.6238 0 0
        CHANNELS 3 Zrotation Xrotation Yrotation
        JOINT RightToeBase
        {
          OFFSET 12.7242 0 0
          CHANNELS 3 Zrotation Xrotation Yrotation
          End Site
          {
            OFFSET 0 0 0
          }
        }
      }
    }
  }
  JOINT Spine
  {
    OFFSET 0.165834 0.87714 6.61349
    CHANNELS 3 Zrotation Xrotation Yrotation
    JOINT Spine1
    {
      OFFSET 7.38963 1.71661e-005 0
      CHANNELS 3 Zrotation Xrotation Yrotation
      JOINT Spine2
      {
        OFFSET 11.9445 1.14441e-005 0
        CHANNELS 3 Zrotation Xrotation Yrotation
        JOINT Spine3
        {
          OFFSET 14.7254 4.19617e-005 0
          CHANNELS 3 Zrotation Xrotation Yrotation
          JOINT Spine4
          {
            OFFSET 10.9679 0 0
            CHANNELS 3 Zrotation Xrotation Yrotation
            JOINT RightShoulder
            {
              OFFSET 2.46616 -1.6653 3.69651
              CHANNELS 3 Zrotation Xrotation Yrotation
              JOINT RightArm
              {
                OFFSET 13.0012 0 0
                CHANNELS 3 Zrotation Xrotation Yrotation
                JOINT RightForeArm
                {
                  OFFSET 28.7848 1.52588e-005 0
                  CHANNELS 3 Zrotation Xrotation Yrotation
                  JOINT RightHand
                  {
                    OFFSET 26.5688 1.52588e-005 0
                    CHANNELS 3 Zrotation Xrotation Yrotation
                    End Site
                    {
                      OFFSET 0 0 0
                    }
                  }
                }
              }
            }
            JOINT LeftShoulder
            {
              OFFSET 2.38034 -1.29275 -3.7523
              CHANNELS 3 Zrotation Xrotation Yrotation
              JOINT LeftArm
              {
                OFFSET 16.3182 6.10352e-005 0
                CHANNELS 3 Zrotation Xrotation Yrotation
                JOINT LeftForeArm
                {
                  OFFSET 27.0901 0 0
                  CHANNELS 3 Zrotation Xrotation Yrotation
                  JOINT LeftHand
                  {
                    OFFSET 24.5451 1.52588e-005 0
                    CHANNELS 3 Zrotation Xrotation Yrotation
                    End Site
                    {
                      OFFSET 0 0 0
                    }
                  }
                }
              }
            }
            JOINT Neck
            {
              OFFSET 5.0226 -0.0266342 0
              CHANNELS 3 Zrotation Xrotation Yrotation
              JOINT Head
              {
                OFFSET 6.69364 2.86102e-005 0
                CHANNELS 3 Zrotation Xrotation Yrotation
                End Site
                {
                  OFFSET 0 0 0
                }
              }
            }
          }
        }
      }
    }
  }
}
MOTION
Frames:	7
Frame Time:	0.0416667
-47.1801 94.4189 -45.3315 90.4272 -36.1087 87.1787 -173.463 -7.73479 88.7863 -21.041 26.4854 0.402687 61.8603 6.04173 9.32826 51.0379 23.2241 -4.08872 -178.996 24.5916 84.9941 -3.89991 5.25097 -2.79295 62.9152 -1.56329 -0.841623 58.3007 2.19935 1.86605 -1.16218 7.67451 -89.812 11.5325 -2.22409 0.602755 -0.13673 -2.1954 0.700096 -22.6872 -2.30235 -0.0938889 -2.67454 -2.30236 -0.093884 78.59 -55.9941 -115.586 28.6655 -7.00477 26.3778 -7.75778 -22.8681 -28.008 -2.43622 -0.388217 4.13122 -100.155 -40.3072 59.829 -17.8718 3.88195 -4.05081 11.2219 4.57178 -57.7023 15.2922 1.12724 3.45509 6.59621 0.418111 1.38231 -1.89792 0.142606 0.308964 
-37.7506 91.8925 -34.4115 92.2055 -35.9159 90.5513 -173.432 -9.83521 93.9365 -32.941 28.4571 2.78017 52.9023 -3.25642 3.8187 55.1801 30.097 3.23061 179.96 27.7052 88.4316 -23.5809 6.16898 -0.940158 60.6573 -1.10396 -0.589508 48.3802 1.17245 1.09266 -1.30408 7.73407 -90.0499 11.4124 -2.61809 0.164761 -0.255938 -2.6083 0.279902 -22.8117 -2.54649 -0.630235 -2.79909 -2.54648 -0.630231 78.8116 -55.8566 -115.331 28.5219 -5.68272 27.861 -7.27817 -23.0217 -25.8147 -2.42774 -0.380721 3.36521 -100.222 -41.1083 60.0799 -17.6002 0.807759 -1.85266 8.26339 1.12361 -59.5736 13.599 0.974895 3.17668 5.21936 0.924496 1.46435 -1.56327 0.653212 0.987989 
-28.5973 91.3644 -24.4975 94.4473 -37.8372 95.297 -173.672 -0.740206 98.6005 -51.9119 20.1381 2.55204 38.4302 -14.6156 -2.43839 39.3519 12.9598 11.3657 179.337 26.428 94.1553 -39.9547 7.87118 -0.287163 65.6365 -2.05898 -1.09977 34.0468 0.231535 9.23941 -0.972222 7.83281 -90.341 11.2027 -2.09333 -0.471049 -0.466598 -2.11202 -0.378429 -23.012 -1.85497 -1.07859 -2.99939 -1.85497 -1.0786 78.7758 -53.2773 -116.374 29.877 -5.75013 24.3512 -7.38629 -20.5133 -28.6793 -2.55058 -0.382896 4.64962 -101.962 -43.0076 58.2295 -20.5136 2.43402 1.31146 7.8512 2.62761 -52.6326 17.0012 1.36954 4.20683 4.1876 0.763068 1.6081 -2.11066 0.476172 0.804173 
-20.3042 93.8983 -15.0166 95.1794 -40.3838 94.0436 -173.027 11.8185 94.0501 -58.2457 14.5143 0.315953 47.962 -6.77315 3.79085 46.2755 20.8551 6.56703 -179.632 15.5159 94.9947 -36.0426 7.82881 -2.36833 71.2034 -3.47983 -1.80629 32.954 0.00267911 9.64645 -0.430533 7.83576 -89.991 11.2048 -0.852684 0.101042 -0.46586 -0.847404 0.138467 -23.0033 -0.843625 -0.159905 -2.99067 -0.843643 -0.159925 79.4542 -51.6925 -116.018 29.4675 -7.94512 16.4918 -8.39211 -16.8545 -37.4782 -7.02702 -0.599212 3.42204 -102.495 -43.4698 57.6223 -26.3573 5.72509 3.38298 6.73014 7.56455 -38.9909 17.8168 1.62502 5.2562 2.74947 -0.283232 1.08322 -1.82728 -0.451599 0.37066 
-12.1422 95.9817 -6.0699 94.1611 -44.8232 91.1605 -171.32 18.0932 89.0829 -37.1705 7.38588 -2.19387 55.272 0.149574 6.71947 51.2227 27.0363 7.28165 179.643 5.11121 93.1591 -28.8131 3.58231 -3.19547 71.0633 -3.15091 -1.61958 36.6756 0.556246 10.7524 0.196392 7.68234 -89.6294 11.5071 0.564093 0.680658 -0.163924 0.593508 0.655163 -22.6981 0.33345 0.818705 -2.68543 0.333474 0.818713 80.4662 -49.8903 -115.246 26.3063 -11.1766 8.15016 -10.9845 -13.5117 -48.2869 -10.0258 -0.75209 3.13526 -102.549 -43.6847 57.6375 -32.6992 7.75239 9.02779 3.43793 8.88985 -28.494 14.9599 1.34063 4.99927 2.88786 -0.629636 1.44201 -1.62715 -0.863744 -0.432337 
-3.29535 95.7403 1.66817 91.0837 -50.0285 89.8273 -173.614 19.847 89.5888 -5.16039 0.0174754 -1.01509 59.3659 3.23879 4.45917 49.3244 27.1185 14.2057 178.296 -2.03978 91.8528 -23.4706 -2.63078 -2.97871 71.0463 -3.97236 -2.04287 40.8164 1.14244 9.48694 0.832767 7.54561 -89.6992 11.7802 1.79753 0.409348 0.110517 1.81381 0.32981 -22.4324 1.59138 0.930775 -2.41975 1.59139 0.930771 82.3984 -46.0777 -113.806 22.0076 -12.4 -2.19836 -15.1162 -12.0683 -57.5226 -11.009 -0.735696 2.24137 -102.628 -44.6161 57.9397 -37.2379 7.57834 14.9748 2.74301 11.589 -23.9306 12.1951 1.02543 4.35498 6.11035 -0.220915 2.77523 -3.45476 -0.74809 -0.746761 
6.21827 93.6679 9.89756 90.8052 -54.2466 90.4932 -174.847 25.2178 91.4212 -4.52217 5.63702 0.00741988 61.2835 3.01766 5.04631 50.9682 29.1738 13.7851 177.542 -7.46661 89.9015 -27.4823 -8.24385 -4.73776 68.5746 -3.59424 -2.04668 52.7786 2.73333 7.90167 1.26832 7.61014 -89.7129 11.6516 2.65749 0.296178 -0.0167161 2.66794 0.178843 -22.5707 2.44555 1.08164 -2.55805 2.44557 1.08163 82.353 -45.1301 -114.25 17.402 -10.9809 -8.65747 -17.4096 -10.698 -63.6687 -11.8959 -0.855059 3.08071 -100.896 -44.6719 60.5785 -40.4931 6.76614 18.7288 2.27408 12.9025 -21.0633 11.0419 1.00264 4.91083 7.92634 -0.00284702 2.12026 -4.08536 -0.441845 0.106312 
